<?xml version="1.0" encoding="utf-8"?>
<svg viewBox="0 0 500 500" xmlns="http://www.w3.org/2000/svg">
  <path d="M 402.516 283.644 C 395.218 281.455 388.651 279.266 384.272 277.077 C 384.272 277.077 384.272 277.077 384.272 277.077 C 409.084 257.373 426.598 224.534 426.598 180.019 C 426.598 131.126 386.461 91.719 337.568 91.719 C 330.27 49.394 293.783 18.744 251.457 18.744 C 209.131 18.744 173.373 50.123 165.346 91.719 C 116.453 91.719 76.316 131.126 76.316 178.56 C 76.316 215.777 91.641 254.454 118.642 276.347 C 118.642 276.347 117.912 277.077 117.912 277.077 C 113.534 279.266 106.966 281.455 100.398 283.644 C 69.748 293.861 17.936 311.375 17.936 371.215 L 17.936 410.621 C 17.936 418.649 24.504 425.216 32.531 425.216 L 77.776 425.216 C 77.046 430.325 76.316 436.163 76.316 442.001 L 76.316 471.191 C 76.316 479.218 82.884 485.786 90.911 485.786 L 412.003 485.786 C 420.03 485.786 426.598 479.218 426.598 471.191 L 426.598 442.001 C 426.598 436.163 425.868 430.325 425.138 425.216 L 470.383 425.216 C 478.41 425.216 484.978 418.649 484.978 410.621 L 484.978 371.215 C 484.978 311.375 433.165 293.861 402.516 283.644 Z M 397.408 180.019 C 397.408 216.507 378.434 255.914 346.325 264.671 C 350.703 249.346 353.622 233.291 353.622 215.777 C 353.622 179.29 334.649 147.181 305.459 129.666 C 314.945 124.558 325.892 120.909 336.838 120.909 C 370.407 120.909 397.408 147.181 397.408 180.019 Z M 178.482 215.777 C 178.482 175.641 211.321 142.802 251.457 142.802 C 291.593 142.802 324.432 175.641 324.432 215.777 C 324.432 269.779 287.945 325.24 251.457 325.24 C 214.969 325.24 178.482 269.779 178.482 215.777 Z M 251.457 47.934 C 279.188 47.934 303.269 68.367 308.378 96.098 C 295.972 100.476 284.296 107.044 274.079 115.801 C 266.782 114.342 258.754 112.882 251.457 112.882 C 243.43 112.882 236.132 113.612 228.835 115.801 C 219.348 107.044 207.672 99.747 194.536 96.098 C 199.644 68.367 223.726 47.934 251.457 47.934 Z M 105.506 178.56 C 105.506 146.451 132.507 120.909 166.076 120.909 C 177.022 120.909 187.968 123.828 197.455 129.666 C 168.265 147.181 149.292 179.29 149.292 215.777 C 149.292 233.291 152.211 249.346 156.589 264.671 C 124.48 255.184 105.506 215.777 105.506 178.56 Z M 47.126 396.026 L 47.126 371.215 C 47.126 335.457 74.127 323.051 109.885 311.375 C 117.912 308.456 125.21 306.267 131.048 303.348 C 136.886 300.429 141.994 296.78 146.373 291.672 C 153.67 293.861 161.697 295.32 170.454 296.05 C 178.482 309.915 187.968 322.321 198.915 331.808 C 197.455 332.538 195.996 333.268 194.536 333.997 C 189.428 336.187 181.401 339.106 172.644 342.025 C 146.373 350.782 107.696 363.187 88.722 396.026 L 47.126 396.026 Z M 455.788 396.026 L 414.922 396.026 C 395.948 363.917 359.46 351.511 336.838 344.214 C 328.811 342.025 320.783 345.673 318.594 353.701 C 316.405 360.998 320.054 369.755 328.081 371.944 C 365.298 384.35 398.137 398.945 398.137 442.001 L 398.137 456.596 L 105.506 456.596 L 105.506 442.001 C 105.506 398.216 138.345 383.621 181.401 369.755 C 191.617 366.836 199.644 363.917 206.212 360.268 C 212.78 357.349 218.618 352.971 222.997 347.863 C 232.483 352.241 241.97 354.43 251.457 354.43 C 281.377 354.43 312.756 331.808 333.189 296.05 C 341.217 296.05 349.244 294.591 357.271 291.672 C 361.65 296.78 366.758 300.429 372.596 303.348 C 378.434 306.267 385.732 308.456 393.759 311.375 C 428.787 323.051 456.518 335.457 456.518 371.215 L 456.518 396.026 L 455.788 396.026 Z" style="fill: rgb(168, 208, 255);"/>
</svg>