<svg xmlns="http://www.w3.org/2000/svg" width="128" height="128" viewBox="0 0 33.867 33.867"><path fill="#a8d0ff" d="M 19.875314,10.017804 C 19.070978,10.608258 17.953293,9.2274638 16.955512,9.2323714 15.957736,9.2372933 14.853678,10.628976 14.043579,10.046472 13.23348,9.4639577 14.201297,7.974283 13.888303,7.0268629 13.575313,6.0794357 11.910554,5.4594685 12.214214,4.5090165 12.517882,3.558565 14.233711,4.0186773 15.038046,3.4282344 c 0.804332,-0.59045 0.879515,-2.3653099 1.877296,-2.3702175 0.99777,-0.00492 1.090398,1.7691426 1.900496,2.3516498 0.810096,0.5825108 2.521324,0.1055535 2.834321,1.0529769 0.312987,0.9474097 -1.345602,1.5837191 -1.649262,2.5341743 -0.303664,0.9504516 0.678752,2.4305429 -0.125583,3.0209861 z" paint-order="fill markers stroke"/><path fill="#00a1ff" d="m 28.25272,19.936838 c 0,4.51706 3.63751,3.76624 3.98357,6.54925 l 0.5604,4.50497 c 0.12418,0.99866 -0.39432,1.81642 -1.40067,1.81642 h -9.58464 c -1.00635,0 -1.52485,-0.81776 -1.40067,-1.81642 l 0.5604,-4.50497 c 0.34606,-2.78301 3.86589,-2.03219 3.86589,-6.54925 l 1.60027,0.74893 z" paint-order="markers fill stroke"/><path fill="#00a1ff" d="M22.33895 16.934288c0 2.26344 1.83488 5.01368 4.09832 5.01368 2.26344 0 4.09832-2.75024 4.09832-5.01368 0-2.26344-1.83488-4.09832-4.09832-4.09832-2.26344 0-4.09832 1.83488-4.09832 4.09832zM5.61394 19.936838c0 4.51706-3.63751 3.76624-3.98357 6.54925l-.5604 4.50497c-.12418.99866.39432 1.81642 1.40067 1.81642h9.58463c1.00636 0 1.52486-.81776 1.40068-1.81642l-.5604-4.50497c-.34606-2.78301-3.86589-2.03219-3.86589-6.54925l-1.60027.74893z" paint-order="markers fill stroke"/><path fill="#00a1ff" d="m 11.52771,16.934288 c 0,2.26344 -1.83488,5.01368 -4.09832,5.01368 -2.26344,0 -4.09832,-2.75024 -4.09832,-5.01368 0,-2.26344 1.83488,-4.09832 4.09832,-4.09832 2.26344,0 4.09832,1.83488 4.09832,4.09832 z" paint-order="markers fill stroke"/><path fill="#06f" d="m 15.11968,18.487498 c 0,5.02571 -4.04713,4.19035 -4.43216,7.28675 l -0.62351,5.01227 c -0.13816,1.11111 0.43873,2.02096 1.5584,2.02096 h 10.66395 c 1.11968,0 1.69656,-0.90985 1.5584,-2.02096 l -0.62351,-5.01227 c -0.38503,-3.0964 -4.30122,-2.26104 -4.30122,-7.28675 l -1.78047,0.83327 z" paint-order="markers fill stroke"/><path fill="#00a1ff" d="m 21.51421,15.146828 c 0,2.51833 -2.0415,5.57827 -4.55983,5.57827 -2.51832,0 -4.55982,-3.05994 -4.55982,-5.57827 0,-2.51832 2.0415,-4.55982 4.55982,-4.55982 2.51833,0 4.55983,2.0415 4.55983,4.55982 z" paint-order="markers fill stroke"/><path fill="#a8d0ff" d="M9.1324755 12.096911C8.5507116 12.523977 7.7423072 11.52527 7.0206275 11.528819 6.2989515 11.532379 5.5004033 12.538962 4.9144711 12.117646 4.3285389 11.696322 5.0285461 10.618863 4.8021623 9.9336083 4.5757815 9.2483487 3.3716868 8.799936 3.5913195 8.1124886 3.8109579 7.4250417 5.0519906 7.7578338 5.6337538 7.3307755 6.2155148 6.9037121 6.2698935 5.6199832 6.9915732 5.6164336c.7216717-.00356.7886681 1.2795937 1.3745996 1.7009122.58593.4213211 1.8236352.076345 2.0500212.761602.226378.6852469-.9732536 1.1454797-1.1928863 1.8329294-.2196355.6874468.4909309 1.7579748-.090832 2.1850338zM28.565159 12.096911c-.581764.427066-1.390168-.571641-2.111848-.568092-.721676.0036-1.520224 1.010143-2.106156.588827C23.761223 11.696322 24.46123 10.618863 24.234846 9.9336083 24.008465 9.2483487 22.804371 8.799936 23.024003 8.1124886c.219639-.6874469 1.460671-.3546548 2.042435-.7817131.581761-.4270634.636139-1.7107923 1.357819-1.7143419.721672-.00356.788668 1.2795937 1.3746 1.7009122.58593.4213211 1.823635.076345 2.050021.761602.226378.6852469-.973254 1.1454797-1.192886 1.8329294-.219636.6874468.49093 1.7579748-.09083 2.1850338z" paint-order="fill markers stroke"/></svg>