<?xml version="1.0" encoding="utf-8"?>
<svg viewBox="0 0 500 500" xmlns="http://www.w3.org/2000/svg">
  <path fill="none" stroke-linecap="round" stroke-linejoin="round" stroke-miterlimit="10" stroke-width="15" d="M 450.822 242.931 C 458.082 270.24 446.827 303.855 421.6 337.496 C 393.791 374.623 348.989 411.783 293.325 440.592 C 275.478 449.829 257.582 457.648 239.979 464.047 C 145.171 498.579 58.648 492.213 33.805 444.186 C 18.749 415.088 29.258 376.316 58.358 337.496 C 78.366 310.8 107.173 284.055 142.495 260.453 C 150.162 273.096 160.188 284.145 172.03 293.002 C 172.045 293.002 172.045 293.018 172.06 293.032 C 179.502 300.101 185.606 306.536 190.615 312.338" style="stroke: rgb(0, 161, 255);"/>
  <path fill="none" stroke-linecap="round" stroke-linejoin="round" stroke-miterlimit="10" stroke-width="15" d="M 208.865 338.366 C 213.523 347.536 213.523 352.118 213.523 352.118 L 213.523 359.388 L 269.98 359.388 L 269.98 352.118 C 269.98 352.071 270.011 327.872 326.388 279.541 C 331.437 274.163 335.897 268.261 339.688 261.937 C 350.264 244.252 355.696 223.343 355.696 200.917 C 355.696 196.968 355.504 193.05 355.099 189.197 C 377.203 189.581 396.719 193.336 412.408 200.471 M 258.929 430.073 L 222.641 430.073 M 287.489 407.775 L 196.768 407.775 M 287.489 383.582 L 196.768 383.582 M 213.523 359.388 L 196.774 359.388 M 287.487 359.388 L 269.98 359.388" style="stroke: rgb(168, 208, 255);"/>
  <path stroke-linecap="round" stroke-linejoin="round" stroke-miterlimit="10" stroke-width="15" d="M 182.726 303.662 C 179.258 300.032 175.702 296.488 172.06 293.035 C 172.044 293.018 172.044 293.002 172.027 293.002 C 160.188 284.146 150.161 273.096 142.495 260.453 C 131.934 243.107 125.873 222.715 125.873 200.918 C 125.873 196.953 126.066 193.051 126.47 189.182 C 132.338 131.227 181.282 86.006 240.785 86.006 C 300.304 86.006 349.234 131.243 355.102 189.198 C 355.504 193.051 355.698 196.969 355.698 200.918 C 355.698 223.343 350.264 244.252 339.689 261.937 C 335.897 268.263 331.437 274.164 326.39 279.543 C 270.014 327.872 269.982 352.072 269.982 352.119 L 269.982 359.39 L 213.524 359.39 L 213.524 352.119 C 213.524 352.119 213.524 347.536 208.867 338.366" style="stroke: rgb(168, 208, 255);" fill="none"/>
  <path fill="none" stroke-linecap="round" stroke-linejoin="round" stroke-miterlimit="10" stroke-width="15" d="M 269.98 359.388 L 269.98 407.221 L 224.276 407.768 L 213.523 407.897 L 213.523 359.388 L 269.98 359.388 Z" style="stroke: rgb(168, 208, 255);"/>
  <path fill="none" stroke-linecap="round" stroke-linejoin="round" stroke-miterlimit="10" stroke-width="15" d="M 443.832 445.598 C 418.989 493.623 334.788 498.579 239.978 464.047 C 222.374 457.648 204.48 449.829 186.634 440.592 C 130.968 411.783 86.165 374.623 58.358 337.496 C 29.258 298.693 18.749 259.92 33.805 230.823" style="stroke: rgb(0, 161, 255);"/>
  <path fill="none" stroke-linecap="round" stroke-linejoin="round" stroke-miterlimit="10" stroke-width="15" d="M 208.865 338.366 C 213.523 347.536 213.523 352.118 213.523 352.118 L 213.523 359.388 L 269.98 359.388 L 269.98 352.118 C 269.98 352.071 270.011 327.872 326.388 279.541 C 331.437 274.163 335.897 268.261 339.688 261.937 C 373.994 285.183 402.012 311.365 421.6 337.496 C 427.368 345.191 432.405 352.884 436.658 360.499 M 126.469 189.181 C 126.066 193.08 125.867 196.998 125.872 200.917 C 125.872 222.714 131.934 243.107 142.494 260.453 C 150.161 273.096 160.187 284.145 172.027 293.002 C 172.044 293.002 172.044 293.018 172.059 293.032 C 179.499 300.101 185.602 306.536 190.614 312.338" style="stroke: rgb(168, 208, 255);"/>
  <circle cx="44.75" cy="200.527" r="32.646" fill="none" stroke-linecap="round" stroke-linejoin="round" stroke-miterlimit="10" stroke-width="15" style="stroke: rgb(0, 161, 255);"/>
  <circle cx="458.095" cy="416.229" r="32.646" fill="none" stroke-linecap="round" stroke-linejoin="round" stroke-miterlimit="10" stroke-width="15" style="stroke: rgb(0, 161, 255);"/>
  <path fill="none" stroke-linecap="round" stroke-linejoin="round" stroke-miterlimit="10" stroke-width="15" d="M 238.889 52.059 L 238.889 8.679 M 343.002 95.44 L 369.029 69.412 M 134.778 95.44 L 108.75 69.412" style="stroke: rgb(0, 102, 255);"/>
</svg>