<?xml version="1.0" encoding="utf-8"?>
<svg viewBox="0 0 500 500" xmlns="http://www.w3.org/2000/svg">
  <path d="M 469.331 207.788 C 428.085 207.788 402.318 163.134 422.946 127.422 C 425.284 123.376 428.138 119.656 431.441 116.346 C 434.402 113.385 434.402 108.579 431.441 105.611 L 388.987 63.136 C 386.019 60.174 381.213 60.174 378.253 63.136 C 363.039 78.676 339.853 83.283 319.857 74.751 C 299.686 66.642 286.56 46.988 286.787 25.245 C 286.787 21.054 283.386 17.653 279.195 17.653 L 219.145 17.653 C 214.947 17.653 211.553 21.054 211.553 25.245 C 211.781 46.988 198.655 66.642 178.484 74.751 C 158.487 83.269 135.317 78.66 120.111 63.136 C 117.143 60.174 112.337 60.174 109.376 63.136 L 66.901 105.588 C 63.932 108.556 63.932 113.362 66.901 116.323 C 82.433 131.536 87.041 154.722 78.516 174.719 C 70.4 194.89 50.745 208.016 29.01 207.788 C 24.812 207.788 21.418 211.189 21.418 215.38 L 21.418 275.43 C 21.418 279.629 24.812 283.022 29.01 283.022 C 50.745 282.795 70.4 295.928 78.516 316.092 C 87.034 336.088 82.418 359.259 66.901 374.465 C 63.932 377.433 63.932 382.239 66.901 385.199 L 109.353 427.653 C 112.314 430.621 117.12 430.621 120.088 427.653 C 149.24 398.485 199.042 411.824 209.724 451.658 C 210.938 456.19 211.553 460.875 211.553 465.566 C 211.553 469.764 214.947 473.158 219.145 473.158 L 279.195 473.158 C 283.386 473.158 286.787 469.764 286.787 465.566 C 286.795 424.328 331.442 398.562 367.154 419.188 C 371.201 421.519 374.92 424.373 378.23 427.676 C 381.191 430.644 385.997 430.644 388.964 427.676 L 431.418 385.222 C 434.379 382.262 434.379 377.457 431.418 374.488 C 402.25 345.335 415.581 295.534 455.416 284.852 C 459.955 283.637 464.631 283.022 469.331 283.022 C 473.522 283.022 476.923 279.629 476.923 275.43 L 476.923 215.38 C 476.923 211.189 473.522 207.788 469.331 207.788 Z M 461.739 268.233 C 409.09 274.118 382.557 334.783 413.972 377.433 C 414.503 378.155 415.057 378.876 415.62 379.574 L 383.339 411.855 C 341.957 378.792 280.296 402.926 272.348 455.295 C 272.211 456.19 272.098 457.079 271.998 457.974 L 226.342 457.974 C 220.458 405.333 159.793 378.8 117.143 410.207 C 116.421 410.746 115.708 411.292 115.002 411.855 L 82.721 379.574 C 98.626 360.109 102.414 333.409 92.537 310.284 C 83.177 286.947 61.623 270.746 36.602 268.233 L 36.602 222.577 C 61.623 220.071 83.177 203.871 92.537 180.527 C 102.414 157.402 98.626 130.709 82.721 111.237 L 115.002 78.956 C 134.467 94.868 161.167 98.649 184.292 88.772 C 207.628 79.412 223.829 57.858 226.342 32.837 L 271.998 32.837 C 274.504 57.858 290.705 79.412 314.049 88.772 C 337.167 98.664 363.874 94.877 383.339 78.956 L 415.62 111.237 C 382.55 152.619 406.684 214.279 459.052 222.228 C 459.947 222.364 460.844 222.478 461.739 222.577 L 461.739 268.233 Z" style="fill: rgb(0, 102, 255);"/>
  <path d="M 249.17 93.57 C 132.288 93.57 59.232 220.102 117.674 321.322 C 176.115 422.551 322.218 422.551 380.659 321.322 C 393.991 298.244 401.006 272.06 401.006 245.405 C 400.906 161.592 332.983 93.669 249.17 93.57 Z M 249.17 382.057 C 143.971 382.057 78.227 268.181 130.822 177.08 C 183.418 85.978 314.915 85.978 367.51 177.08 C 379.506 197.858 385.822 221.423 385.822 245.405 C 385.731 320.845 324.602 381.973 249.17 382.057 Z" style="fill: rgb(0, 161, 255);"/>
  <path d="M 321.717 283.197 L 321.717 200.045 C 321.717 170.635 295.305 146.713 262.835 146.713 L 185.209 146.713 C 172.638 146.082 161.394 154.487 158.449 166.725 C 156.999 174.825 159.959 183.077 166.223 188.407 C 172.25 193.052 176.032 200.037 176.623 207.621 L 176.623 299.307 C 176.623 324.01 198.746 344.098 225.97 344.098 L 312.698 344.098 C 325.573 344.751 337.067 336.088 339.991 323.533 C 341.183 315.606 338.207 307.62 332.118 302.404 C 326.09 297.765 322.31 290.789 321.717 283.197 Z M 312.698 328.914 L 225.94 328.914 C 207.12 328.914 191.777 315.629 191.777 299.307 L 191.777 207.621 C 191.336 195.619 185.643 184.413 176.198 176.981 C 173.982 175.174 172.911 172.312 173.39 169.488 C 175.136 164.561 180.001 161.441 185.209 161.896 L 262.835 161.896 C 286.924 161.896 306.527 179.008 306.527 200.045 L 306.527 283.197 C 306.959 295.207 312.66 306.413 322.112 313.83 C 324.283 315.606 325.369 318.384 324.982 321.163 C 323.114 326.235 318.073 329.416 312.698 328.914 Z" style="fill: rgb(168, 208, 255);"/>
  <path d="M 203.619 177.08 L 264.354 177.08 L 264.354 192.264 L 203.619 192.264 L 203.619 177.08 Z M 211.211 207.446 L 226.395 207.446 L 226.395 222.63 L 211.211 222.63 L 211.211 207.446 Z M 271.946 268.181 L 287.129 268.181 L 287.129 283.364 L 271.946 283.364 L 271.946 268.181 Z M 241.578 207.446 L 271.946 207.446 L 271.946 222.63 L 241.578 222.63 L 241.578 207.446 Z M 211.211 237.813 L 271.946 237.813 L 271.946 252.997 L 211.211 252.997 L 211.211 237.813 Z M 226.395 268.181 L 256.762 268.181 L 256.762 283.364 L 226.395 283.364 L 226.395 268.181 Z M 233.987 298.548 L 294.721 298.548 L 294.721 313.732 L 233.987 313.732 L 233.987 298.548 Z" style="fill: rgb(0, 102, 255);"/>
</svg>